<svg width="37" height="33" fill="none" xmlns="http://www.w3.org/2000/svg"><path d="M11.768 13.919c6.5 0 11.768-2.226 11.768-4.973 0-.204-.03-.406-.087-.603-.704.66-1.652 1.25-2.823 1.745-2.388 1.01-5.534 1.565-8.858 1.565-3.324 0-6.47-.555-8.858-1.565C1.74 9.594.792 9.004.087 8.343A2.166 2.166 0 000 8.946c0 2.747 5.268 4.973 11.767 4.973z" fill="#FC7337"/><path d="M23.536 5.301c0 2.746-5.269 4.972-11.768 4.972C5.27 10.273.001 8.047.001 5.301 0 2.555 5.269.33 11.768.33c6.5 0 11.768 2.226 11.768 4.972zM11.768 17.565c1.881 0 3.659-.187 5.236-.518a11.179 11.179 0 012.713-2.963c-2.251.788-5.032 1.216-7.949 1.216-3.323 0-6.47-.556-8.858-1.565C1.74 13.24.792 12.65.087 11.989c-.057.198-.086.4-.086.604 0 2.746 5.268 4.972 11.767 4.972z" fill="#FC7337"/><path d="M11.768 21.211c1.3 0 2.551-.089 3.721-.254.148-.82.385-1.608.703-2.355-1.4.226-2.892.344-4.424.344-3.324 0-6.47-.556-8.858-1.565-1.17-.495-2.118-1.085-2.823-1.746-.057.198-.086.4-.086.604 0 2.746 5.268 4.972 11.767 4.972z" fill="#FC7337"/><path d="M11.768 24.858c1.283 0 2.517-.086 3.673-.247a11.14 11.14 0 01-.114-2.237c-1.143.145-2.34.22-3.56.22-3.323 0-6.469-.556-8.858-1.566-1.17-.494-2.118-1.084-2.823-1.745-.056.198-.086.4-.086.604 0 2.745 5.269 4.971 11.768 4.971z" fill="#FC7337"/><path d="M11.768 26.239c-3.324 0-6.47-.556-8.858-1.565-1.17-.495-2.118-1.085-2.823-1.746-.057.198-.086.4-.086.604 0 2.746 5.268 4.972 11.767 4.972 1.714 0 3.343-.155 4.811-.433-.35-.665-.633-1.37-.843-2.107a28.21 28.21 0 01-3.968.275zm14.639-13.023c-5.355 0-9.712 4.357-9.712 9.712 0 5.355 4.357 9.712 9.712 9.712 5.355 0 9.711-4.356 9.711-9.712 0-5.355-4.356-9.712-9.711-9.712zm.545 14.163v1.499H25.76v-1.411c-.916-.03-1.832-.291-2.356-.64l.393-1.367c.567.334 1.381.64 2.27.64.915 0 1.541-.451 1.541-1.15 0-.654-.509-1.076-1.585-1.469-1.528-.553-2.517-1.25-2.517-2.603 0-1.252.873-2.212 2.342-2.473v-1.426h1.193v1.353c.916.029 1.542.247 2.007.48l-.392 1.338c-.35-.16-.99-.494-1.979-.494-1.018 0-1.381.523-1.381 1.018 0 .597.523.93 1.76 1.425 1.629.612 2.356 1.397 2.356 2.692 0 1.236-.859 2.326-2.459 2.588z" fill="#FC7337"/><path d="M20.812 15.614H30.88v13.843H20.812V15.614z" fill="#FC7337"/><path d="M23.54 23.168h1.048V18.8c.372-.07.757-.124 1.155-.159.398-.044.819-.066 1.261-.066.46 0 .903.04 1.328.12.424.079.796.225 1.115.437.318.213.57.505.756.876.195.372.293.85.293 1.434 0 .54-.093.996-.28 1.367a2.614 2.614 0 01-.743.916c-.31.23-.663.399-1.062.505a5.235 5.235 0 01-1.248.146h-.902v.77h2.124v1.208H26.26V28h-1.673v-1.646h-1.049v-1.208h1.049v-.77h-1.049v-1.208zm2.72-.04h.691c.239 0 .465-.026.677-.08.221-.062.412-.154.57-.278a1.23 1.23 0 00.373-.492c.097-.212.146-.464.146-.756 0-.54-.146-.92-.438-1.142-.293-.23-.669-.345-1.129-.345-.177 0-.345.009-.504.026-.16.01-.288.023-.385.04v3.027z" fill="#F5F5F5"/></svg>