<svg width="31" height="32" fill="none" xmlns="http://www.w3.org/2000/svg"><path d="M1.978 20.382H5.6v9.945H1.978v-9.945z" fill="#FC7337"/><path d="M5.6 31.248H1.917a.944.944 0 01-.921-.92v-9.945c0-.491.43-.92.92-.92H5.6c.491 0 .92.43.92.92v9.944a.903.903 0 01-.92.921zm-2.701-1.842H4.74v-8.103H2.899v8.103zm6.875-14.241h3.622v15.224H9.774V15.165z" fill="#FC7337"/><path d="M13.458 31.248H9.774a.944.944 0 01-.92-.92V15.164c0-.492.43-.921.92-.921h3.684c.49 0 .92.43.92.92v15.163c0 .552-.43.92-.92.92zm-2.763-1.842h1.842V16.085h-1.842v13.321zm6.937-17.126h3.622v18.108h-3.622V12.28z" fill="#FC7337"/><path d="M21.253 31.248H17.57a.944.944 0 01-.92-.921V12.279c0-.49.43-.92.92-.92h3.683c.492 0 .921.43.921.92v18.11c0 .49-.43.859-.92.859zm-2.7-1.842h1.841V13.2h-1.842v16.206zM1.794 15.656c-.307 0-.614-.184-.798-.43-.246-.43-.123-.983.307-1.29L20.763 2.09c.43-.246.982-.123 1.289.307.245.43.123.982-.307 1.29L2.285 15.47c-.184.123-.307.184-.491.184z" fill="#FC7337"/><path d="M23.402 1.23l-3.99.49 2.456 3.254 1.534-3.745z" fill="#FC7337"/><path d="M21.867 5.895a.875.875 0 01-.736-.368l-2.455-3.254a.98.98 0 01-.123-.92c.123-.307.43-.492.736-.553l3.99-.43c.307-.061.614.123.86.369.245.245.245.614.122.92l-1.534 3.684c-.123.307-.43.49-.737.552h-.123zm-.737-3.438l.492.675.307-.798-.799.123zm4.482 6.139h3.622v21.792h-3.622V8.596z" fill="#FC7337"/><path d="M29.233 31.248H25.55a.944.944 0 01-.92-.92V8.595c0-.49.43-.92.92-.92h3.683c.492 0 .921.43.921.92V30.39c0 .49-.43.86-.92.86v-.001zm-2.7-1.842h1.841V9.516h-1.842v19.89z" fill="#FC7337"/></svg>