<svg width="26" height="26" fill="none" xmlns="http://www.w3.org/2000/svg"><path d="M24.689 4.765L21.45 1.531a2.457 2.457 0 00-1.74-.724c-.66 0-1.28.259-1.745.724l-3.483 3.484a2.458 2.458 0 000 3.486l2.547 2.548a11.971 11.971 0 01-2.447 3.53 12.02 12.02 0 01-3.53 2.456l-2.547-2.548a2.456 2.456 0 00-1.742-.723c-.66 0-1.28.258-1.745.723l-3.486 3.48a2.46 2.46 0 00-.724 1.746c0 .66.259 1.28.724 1.744l3.231 3.232a3.995 3.995 0 002.818 1.167c.222 0 .435-.018.645-.054 4.097-.675 8.162-2.855 11.442-6.132 3.277-3.274 5.453-7.335 6.137-11.445a4 4 0 00-1.115-3.46z" fill="#fff"/></svg>