<svg width="523" height="402" fill="none" xmlns="http://www.w3.org/2000/svg"><path d="M58.003 401.417C40.894 375.863 17.325 340.778.981 315.2c1.388-.934 8.04-5.268 9.428-6.179 16.2 25.291 39.77 62.052 55.252 87.367l.12.191h-.168l-7.61 4.67v.168zm0 0l7.37-5.029v.311C49.054 372.75 25.15 336.06 9.117 311.416l1.651.36-7.49 4.789.36-1.604c15.936 24.691 38.668 61.094 54.437 86.456h-.072zM583.116.774c-1.244 1.58-87.076 172.217-88.081 173.582l-.598-.934-24.838-38.318c4.786-.599-293.82 190.586-292.647 190.706l-.957.623-.599-.958-55.418-85.81-.623-.958.958-.622c.215.79 295.781-192.503 293.843-188.767L389.39 11l-.598-.91c.957-.144 193.272-9.029 194.324-9.149V.774zm0 0c0-.599-195.951 11.974-192.649 9.388l24.862 38.318c1.651 1.246-293.533 190.515-293.796 191.449l.335-1.581 55.419 85.834-1.556-.336c.981.168 294.538-191.592 295.017-189.556l24.766 38.318C491.613 175.003 584.05.462 583.116.654v.12zm-534.23 284.85c9.452 14.177 33.285 49.933 42.33 63.656l14.046 21.554.598.91-.933.599-25.34 16.477-1.006.671-.646-1.03c-9.164-14.25-32.543-50.676-41.253-64.543l-13.615-21.554-.311-.455.454-.287 25.676-15.974v-.024zm0 0l-24.958 16.884.144-.743 14.094 21.291c8.973 13.507 32.782 50.101 41.899 64.136l-1.651-.36 25.316-16.357-.311 1.509-13.687-21.339c-8.662-13.699-31.945-50.868-40.846-65.069v.048zm54.677-35.381c16.75 25.242 40.129 60.136 56.328 85.234l.575.886-.886.575-39.123 25.482-1.005.647-.646-1.006-27.59-42.989C81.86 304.583 72.72 289.95 63.46 275.389c10.146-6.37 29.959-18.824 40.104-25.146zm0 0c-9.571 6.49-29.145 19.446-38.812 25.913l.215-.934c9.333 14.249 18.785 28.403 28.02 42.701l27.83 42.964-1.651-.359 39.267-25.242-.311 1.461c-15.889-24.716-38.669-61.094-54.558-86.385v-.119z" fill="#EBEBEB"/></svg>