<svg width="185" height="185" fill="none" xmlns="http://www.w3.org/2000/svg"><path d="M15.362 93.209A75.794 75.794 0 0028.105 135.3a75.694 75.694 0 0033.962 27.91 75.62 75.62 0 0043.732 4.321 75.67 75.67 0 0038.759-20.726 75.769 75.769 0 0020.72-38.785 75.812 75.812 0 00-4.303-43.77 75.739 75.739 0 00-27.876-34 75.64 75.64 0 00-42.051-12.768 75.678 75.678 0 00-53.503 22.185A75.808 75.808 0 0015.362 93.21zm40.32 0a35.418 35.418 0 015.983-19.653 35.373 35.373 0 0115.882-13.015 35.338 35.338 0 0138.526 7.703 35.423 35.423 0 017.645 38.569 35.39 35.39 0 01-13.027 15.878 35.338 35.338 0 01-33.188 3.263 35.35 35.35 0 01-11.48-7.685 35.4 35.4 0 01-10.342-25.06z" fill="#EBEBEB"/><path d="M76.5 20.62h29.097L103.994 0H78.103L76.5 20.62zm55.37 9.818l20.579 20.597 13.424-15.711-18.282-18.321-15.721 13.435zm32.232 46.126v29.122l20.603-1.604V78.169l-20.603-1.605zm-9.787 55.442l-20.578 20.597 15.697 13.435 18.305-18.321-13.424-15.711zm-46.11 32.26H79.108l1.603 20.62h25.891l1.603-20.62zm-55.395-9.819l-20.555-20.596-13.447 15.71 18.305 18.321 15.697-13.435zm-32.207-46.126V79.199L0 80.803v25.913l20.603 1.605zm9.787-55.442l20.578-20.596L35.27 18.847 16.965 37.168l13.424 15.71z" fill="#EBEBEB"/></svg>