<svg width="101" height="100" fill="none" xmlns="http://www.w3.org/2000/svg"><path d="M23.446 83.113a6.647 6.647 0 016.94 0c.574.359 1.172.694 1.77 1.005.598.312 1.22.647 1.843.935a6.606 6.606 0 013.852 5.723l.263 8.526 27.71-.862-.263-8.526a6.615 6.615 0 013.493-5.987 38.744 38.744 0 003.518-2.18 6.577 6.577 0 016.867-.43l7.49 4.023 13.113-24.476-7.49-4.023a6.631 6.631 0 01-3.446-5.988c.044-1.374.004-2.75-.12-4.119a6.662 6.662 0 013.04-6.227l7.178-4.478-14.453-23.542-7.178 4.502a6.552 6.552 0 01-6.892 0 25.872 25.872 0 00-1.77-1.006c-.599-.31-1.22-.622-1.82-.934a6.558 6.558 0 01-3.875-5.723L62.951.8l-27.71.862.264 8.478a6.518 6.518 0 01-3.47 5.987 33.312 33.312 0 00-3.517 2.204 6.624 6.624 0 01-6.891.43l-7.682-4.023L.833 39.214l7.49 4.023a6.583 6.583 0 013.446 5.988 34.085 34.085 0 00.12 4.143 6.568 6.568 0 01-3.063 6.203l-7.179 4.478 14.62 23.59 7.18-4.526zM30.41 39.31a22.718 22.718 0 019.335-9.317 22.692 22.692 0 0125.106 2.51 22.746 22.746 0 01-.044 35.136 22.699 22.699 0 01-25.112 2.445A22.771 22.771 0 0128.7 56.616a22.793 22.793 0 011.708-17.306z" fill="#DBDBDB"/></svg>